<?xml version="1.0" encoding="UTF-8" standalone="no"?>
<!-- Created with Inkscape (http://www.inkscape.org/) -->
<svg
   xmlns:dc="http://purl.org/dc/elements/1.1/"
   xmlns:cc="http://creativecommons.org/ns#"
   xmlns:rdf="http://www.w3.org/1999/02/22-rdf-syntax-ns#"
   xmlns:svg="http://www.w3.org/2000/svg"
   xmlns="http://www.w3.org/2000/svg"
   xmlns:sodipodi="http://sodipodi.sourceforge.net/DTD/sodipodi-0.dtd"
   xmlns:inkscape="http://www.inkscape.org/namespaces/inkscape"
   width="744.09448819"
   height="1052.3622047"
   id="svg2"
   sodipodi:version="0.32"
   inkscape:version="0.46"
   sodipodi:docname="iocane_balance_logo.svg"
   inkscape:output_extension="org.inkscape.output.svg.inkscape"
   inkscape:export-filename="C:\Documents and Settings\memming\Desktop\iocane\images\iocane_balance_logo_small.png"
   inkscape:export-xdpi="50"
   inkscape:export-ydpi="50">
  <defs
     id="defs4">
    <inkscape:perspective
       sodipodi:type="inkscape:persp3d"
       inkscape:vp_x="0 : 526.18109 : 1"
       inkscape:vp_y="0 : 1000 : 0"
       inkscape:vp_z="744.09448 : 526.18109 : 1"
       inkscape:persp3d-origin="372.04724 : 350.78739 : 1"
       id="perspective10" />
  </defs>
  <sodipodi:namedview
     id="base"
     pagecolor="#ffffff"
     bordercolor="#666666"
     borderopacity="1.0"
     gridtolerance="10000"
     guidetolerance="10"
     objecttolerance="10"
     inkscape:pageopacity="0.0"
     inkscape:pageshadow="2"
     inkscape:zoom="3.8810058"
     inkscape:cx="231.50499"
     inkscape:cy="850.33975"
     inkscape:document-units="px"
     inkscape:current-layer="layer1"
     showgrid="false"
     showguides="true"
     inkscape:guide-bbox="true"
     inkscape:window-width="1600"
     inkscape:window-height="1140"
     inkscape:window-x="-4"
     inkscape:window-y="-4">
    <inkscape:grid
       type="xygrid"
       id="grid3159" />
  </sodipodi:namedview>
  <metadata
     id="metadata7">
    <rdf:RDF>
      <cc:Work
         rdf:about="">
        <dc:format>image/svg+xml</dc:format>
        <dc:type
           rdf:resource="http://purl.org/dc/dcmitype/StillImage" />
      </cc:Work>
    </rdf:RDF>
  </metadata>
  <g
     inkscape:label="Layer 1"
     inkscape:groupmode="layer"
     id="layer1">
    <path
       style="fill:#2d57a1;fill-opacity:1;fill-rule:nonzero;stroke:none;stroke-width:1.23199999;stroke-miterlimit:4;stroke-dasharray:none;stroke-dashoffset:0;stroke-opacity:1"
       d="M 116,136.4375 C 113.02689,137.35837 110.875,140.12267 110.875,143.40625 C 110.875,147.44759 114.14617,150.6875 118.1875,150.6875 L 192.71875,150.6875 C 196.76009,150.6875 200,147.44759 200,143.40625 C 200,140.55206 198.37704,138.10594 196,136.90625 L 196,142.375 L 116,142.375 L 116,136.4375 z"
       id="rect2383" />
    <rect
       ry="0"
       y="167.77252"
       x="150"
       height="14.589665"
       width="160"
       id="rect3157"
       style="fill:#324e80;fill-opacity:1;fill-rule:nonzero;stroke:none;stroke-width:1.23199999000000000;stroke-miterlimit:4;stroke-dasharray:none;stroke-dashoffset:0;stroke-opacity:1" />
    <rect
       style="fill:#324e80;fill-opacity:1;fill-rule:nonzero;stroke:none;stroke-width:1.23199999000000000;stroke-miterlimit:4;stroke-dasharray:none;stroke-dashoffset:0;stroke-opacity:1"
       id="rect3163"
       width="10"
       height="30"
       x="150"
       y="142.36218"
       ry="5" />
    <path
       style="fill:#2d57a1;fill-opacity:1;fill-rule:evenodd;stroke:none;stroke-width:1px;stroke-linecap:butt;stroke-linejoin:miter;stroke-opacity:1"
       d="M 229.74233,182.36218 C 229.74233,232.36218 229.74233,232.36218 229.74233,232.36218 L 329.74233,232.36218 C 296.41497,215.97644 263.92907,239.1391 229.74233,182.36218 z"
       id="path3167"
       sodipodi:nodetypes="cccc" />
    <path
       id="path3172"
       d="M 266,136.4375 C 263.02689,137.35837 260.875,140.12267 260.875,143.40625 C 260.875,147.44759 264.14617,150.6875 268.1875,150.6875 L 342.71875,150.6875 C 346.76009,150.6875 350,147.44759 350,143.40625 C 350,140.55206 348.37704,138.10594 346,136.90625 L 346,142.375 L 266,142.375 L 266,136.4375 z"
       style="fill:#2d57a1;fill-opacity:1;fill-rule:nonzero;stroke:none;stroke-width:1.23199999;stroke-miterlimit:4;stroke-dasharray:none;stroke-dashoffset:0;stroke-opacity:1" />
    <rect
       ry="5"
       y="142.36218"
       x="300"
       height="30"
       width="10"
       id="rect3165"
       style="fill:#324e80;fill-opacity:1;fill-rule:nonzero;stroke:none;stroke-width:1.23199999000000000;stroke-miterlimit:4;stroke-dasharray:none;stroke-dashoffset:0;stroke-opacity:1" />
    <path
       sodipodi:type="arc"
       style="fill:#859d9c;fill-opacity:1;fill-rule:nonzero;stroke:none;stroke-width:1.23199999;stroke-miterlimit:4;stroke-dasharray:none;stroke-dashoffset:0;stroke-opacity:1"
       id="path3174"
       sodipodi:cx="220"
       sodipodi:cy="317.36218"
       sodipodi:rx="140"
       sodipodi:ry="145"
       d="M 360,317.36218 A 140,145 0 1 1 80,317.36218 A 140,145 0 1 1 360,317.36218 z"
       transform="matrix(1.7857133e-2,0,0,1.7241376e-2,151.14288,141.80471)" />
    <path
       sodipodi:nodetypes="cccc"
       id="path3187"
       d="M 230,182.36218 C 230,232.36218 230,232.36218 230,232.36218 L 130,232.36218 C 163.32736,215.97644 195.81326,239.1391 230,182.36218 z"
       style="fill:#2d57a1;fill-opacity:1;fill-rule:evenodd;stroke:none;stroke-width:1px;stroke-linecap:butt;stroke-linejoin:miter;stroke-opacity:1" />
    <text
       xml:space="preserve"
       style="font-size:16.69361687000000000px;font-style:normal;font-weight:normal;fill:#ffffff;fill-opacity:1;stroke:none;stroke-width:1px;stroke-linecap:butt;stroke-linejoin:miter;stroke-opacity:1;font-family:Bitstream Vera Sans"
       x="228.4751"
       y="180.96544"
       id="text3209"><tspan
         sodipodi:role="line"
         id="tspan3211"
         x="228.4751"
         y="180.96544"
         style="text-align:center;text-anchor:middle;fill:#ffffff;fill-opacity:1">IOCANE</tspan></text>
    <path
       transform="matrix(1.7857133e-2,0,0,1.7241376e-2,301.14288,141.80471)"
       d="M 360,317.36218 A 140,145 0 1 1 80,317.36218 A 140,145 0 1 1 360,317.36218 z"
       sodipodi:ry="145"
       sodipodi:rx="140"
       sodipodi:cy="317.36218"
       sodipodi:cx="220"
       id="path3185"
       style="fill:#859d9c;fill-opacity:1;fill-rule:nonzero;stroke:none;stroke-width:1.23199999;stroke-miterlimit:4;stroke-dasharray:none;stroke-dashoffset:0;stroke-opacity:1"
       sodipodi:type="arc" />
  </g>
</svg>
